# xmcd
#
# Track frame offsets: 
#        183
#        17428
#        37945
#        55673
#        69815
#        94808
#        109825
#        134003
#        147425
#        167045
#        180063
#        195340
#
# Disc length: 2810 seconds
#
# Revision: 5
# Processed by: cddbd v1.5.2PL0 Copyright (c) Steve Scherf et al.
# Submitted via: ExactAudioCopyFreeDBPlugin 1.0
#
DISCID=920af80c
DTITLE=Guitar Crusher (Sidney Selby) - Googa Mooga
DYEAR=1992
DGENRE=Blues
TTITLE0=Mama's Baby
TTITLE1=I Wanna Go Outside In The Rain
TTITLE2=Play Me Some Music DJ
TTITLE3=I'm Gonna Wait
TTITLE4=Hold On To What I've Got
TTITLE5=Don't Stop
TTITLE6=I'm The Great Googa Mooga
TTITLE7=Watch Dog
TTITLE8=Mama, You're Alright
TTITLE9=Nobody Knows How You Soothe Me
TTITLE10=Bone Crushing Man
TTITLE11=Soul Food
EXTD=YEAR: 1992
EXTT0=
EXTT1=
EXTT2=
EXTT3=
EXTT4=
EXTT5=
EXTT6=
EXTT7=
EXTT8=
EXTT9=
EXTT10=
EXTT11=
PLAYORDER=
